<svg width="31" height="31" viewBox="0 0 31 31" fill="none" xmlns="http://www.w3.org/2000/svg">
<g clip-path="url(#clip0_99_3826)">
<path d="M10.9508 1.48673C7.95335 2.52658 5.36834 4.50024 3.57548 7.11783C1.78262 9.73541 0.876419 12.8589 0.989976 16.0296C1.10353 19.2003 2.23086 22.251 4.20639 24.7336C6.18191 27.2162 8.90148 28.9999 11.9657 29.8227C14.4499 30.4637 17.0526 30.4918 19.55 29.9047C21.8125 29.3965 23.9042 28.3095 25.6203 26.75C27.4065 25.0774 28.7029 22.9496 29.3703 20.5953C30.0958 18.0352 30.2249 15.3428 29.7477 12.725H15.7977V18.5117H23.8766C23.7151 19.4347 23.3691 20.3155 22.8593 21.1016C22.3495 21.8877 21.6863 22.5629 20.9094 23.0867C19.9229 23.7393 18.8108 24.1784 17.6446 24.3758C16.4749 24.5933 15.2752 24.5933 14.1055 24.3758C12.92 24.1307 11.7985 23.6414 10.8125 22.9391C9.22851 21.8178 8.03912 20.2248 7.4141 18.3875C6.7785 16.5158 6.7785 14.4866 7.4141 12.6149C7.859 11.3029 8.59449 10.1083 9.56566 9.12032C10.677 7.96895 12.0841 7.14594 13.6324 6.7416C15.1808 6.33725 16.8106 6.36719 18.343 6.82814C19.5401 7.19562 20.6348 7.83768 21.5399 8.70314C22.4508 7.79689 23.3602 6.88829 24.268 5.97735C24.7368 5.48751 25.2477 5.0211 25.7094 4.51954C24.3279 3.23394 22.7063 2.23358 20.9375 1.57579C17.7165 0.406237 14.1922 0.374806 10.9508 1.48673Z" fill="white"/>
<path d="M10.9509 1.48671C14.192 0.37403 17.7163 0.404633 20.9376 1.57343C22.7067 2.23569 24.3276 3.24086 25.7071 4.53124C25.2384 5.0328 24.7438 5.50155 24.2657 5.98905C23.3563 6.89687 22.4478 7.80155 21.5399 8.70312C20.6349 7.83766 19.5402 7.1956 18.3431 6.82812C16.8111 6.36555 15.1814 6.33388 13.6326 6.73657C12.0839 7.13927 10.676 7.96076 9.56338 9.11093C8.59221 10.0989 7.85672 11.2935 7.41182 12.6055L2.55322 8.84374C4.2923 5.39506 7.30342 2.75708 10.9509 1.48671Z" fill="#E33629"/>
<path d="M1.26401 12.5703C1.52515 11.2761 1.9587 10.0227 2.55307 8.84375L7.41166 12.6148C6.77607 14.4866 6.77607 16.5158 7.41166 18.3875C5.79291 19.6375 4.17338 20.8937 2.55307 22.1562C1.06514 19.1945 0.611349 15.8199 1.26401 12.5703Z" fill="#F8BD00"/>
<path d="M15.7977 12.7227H29.7477C30.2249 15.3405 30.0958 18.0328 29.3703 20.593C28.7029 22.9472 27.4065 25.075 25.6203 26.7477C24.0524 25.5242 22.4774 24.3102 20.9094 23.0867C21.6868 22.5624 22.3503 21.8865 22.8601 21.0995C23.37 20.3126 23.7157 19.4308 23.8766 18.507H15.7977C15.7953 16.5805 15.7977 14.6516 15.7977 12.7227Z" fill="#587DBD"/>
<path d="M2.55078 22.1563C4.17109 20.9063 5.79062 19.65 7.40937 18.3875C8.03564 20.2255 9.22673 21.8185 10.8125 22.9391C11.8016 23.6381 12.9255 24.1234 14.1125 24.3641C15.2822 24.5816 16.4819 24.5816 17.6516 24.3641C18.8178 24.1667 19.9299 23.7276 20.9164 23.075C22.4844 24.2984 24.0594 25.5125 25.6273 26.7359C23.9115 28.2962 21.8197 29.3841 19.557 29.893C17.0596 30.4801 14.4569 30.452 11.9727 29.8109C10.0079 29.2864 8.17268 28.3616 6.58203 27.0945C4.89842 25.7579 3.52333 24.0734 2.55078 22.1563Z" fill="#319F43"/>
</g>
<defs>
<clipPath id="clip0_99_3826">
<rect width="30" height="30" fill="white" transform="translate(0.5 0.5)"/>
</clipPath>
</defs>
</svg>
