<svg width="36" height="36" viewBox="0 0 36 36" fill="none" xmlns="http://www.w3.org/2000/svg">
<path d="M5.69587 31.5127C6.82428 31.2938 7.47886 29.7751 7.15792 28.1206C6.83698 26.4662 5.66205 25.3024 4.53364 25.5213C3.40523 25.7402 2.75065 27.2588 3.07159 28.9133C3.39253 30.5678 4.56746 31.7316 5.69587 31.5127Z" fill="#616161"/>
<path d="M4.33401 16.8862C4.15401 20.5847 4.43526 24.6937 4.89932 28.6453" stroke="#616161" stroke-width="0.75" stroke-miterlimit="10"/>
<path d="M32.9254 28.9102C33.2465 27.2557 32.592 25.737 31.4636 25.518C30.3352 25.2991 29.1602 26.4628 28.8391 28.1172C28.5181 29.7717 29.1726 31.2904 30.3009 31.5094C31.4293 31.7284 32.6044 30.5647 32.9254 28.9102Z" fill="#616161"/>
<path d="M31.6659 16.8862C31.8459 20.5847 31.5646 24.6937 31.1006 28.6453" stroke="#616161" stroke-width="0.75" stroke-miterlimit="10"/>
<path d="M32.0428 18.7341C30.5887 18.6666 29.3822 17.5753 29.1937 16.1325C28.9828 14.4984 28.44 12.6113 27.0787 10.8C24.9384 7.95656 21.8053 6.45188 18.0141 6.45188C15.3562 6.45188 11.6212 7.20563 8.91844 10.8C7.54031 12.6337 7.00312 14.5603 6.79781 16.2197C6.62625 17.595 5.5125 18.6609 4.12594 18.7256L3.95719 18.7341C2.98406 18.7791 2.17969 17.9747 2.23594 17.0044C2.37094 14.6334 2.96719 10.4231 5.34375 7.26188C8.31937 3.30187 12.8194 1.125 18.0141 1.125C23.1891 1.125 27.6778 3.30187 30.6534 7.25625C33.0328 10.4203 33.6262 14.6334 33.7641 17.0016C33.8203 17.9747 33.0159 18.7791 32.0428 18.7341Z" fill="#616161"/>
<path d="M10.8928 34.6753C8.15909 35.055 5.02315 33.0384 4.39034 28.3725C3.76034 23.7262 5.96815 20.9025 8.2069 20.4694L10.8928 34.6753Z" fill="#424242"/>
<path d="M11.0504 19.5075L8.67098 19.9153C8.20059 20.006 7.76771 20.2342 7.42723 20.5712C7.08675 20.9082 6.85399 21.3387 6.75848 21.8081C6.49411 23.1047 6.32536 25.1775 6.87098 28.0041C7.41942 30.8278 8.35036 32.6869 9.08442 33.7922C9.62442 34.6078 10.6032 35.0184 11.565 34.83L13.9444 34.4222C15.0947 34.2 15.3788 30.6788 14.5772 26.5613C13.7785 22.4438 12.2007 19.2853 11.0504 19.5075Z" fill="#757575"/>
<path opacity="0.5" d="M14.1773 33.7885C15.1365 33.6024 15.3158 30.3674 14.5777 26.5628C13.8397 22.7583 12.4639 19.8249 11.5048 20.011C10.5456 20.197 10.3663 23.432 11.1044 27.2366C11.8424 31.0412 13.2182 33.9746 14.1773 33.7885Z" fill="#424242"/>
<path d="M14.0204 26.671C14.521 29.2472 14.6307 31.3932 14.2679 31.4635C13.905 31.5338 13.2019 29.5032 12.7041 26.9269C12.2035 24.3507 12.0938 22.2047 12.4566 22.1344C12.8194 22.0641 13.5197 24.0947 14.0204 26.671Z" fill="url(#paint0_linear_85_106)"/>
<path d="M25.1072 34.6753C27.8409 35.055 30.9769 33.0384 31.6097 28.3725C32.2397 23.7262 30.0319 20.9025 27.7931 20.4694L25.1072 34.6753Z" fill="#424242"/>
<path d="M24.9497 19.5075L27.3291 19.9153C27.7995 20.006 28.2324 20.2342 28.5729 20.5712C28.9134 20.9082 29.1461 21.3387 29.2416 21.8081C29.506 23.1047 29.6747 25.1775 29.1291 28.0041C28.5807 30.8278 27.6497 32.6869 26.9157 33.7922C26.6514 34.1914 26.2746 34.5031 25.833 34.6878C25.3914 34.8726 24.9048 34.9221 24.435 34.83L22.0557 34.4222C20.9054 34.2 20.6213 30.6788 21.4229 26.5613C22.2216 22.4438 23.7994 19.2853 24.9497 19.5075Z" fill="#757575"/>
<path opacity="0.5" d="M24.8943 27.2347C25.6326 23.4302 25.4536 20.1951 24.4945 20.009C23.5353 19.8229 22.1593 22.7561 21.421 26.5607C20.6827 30.3652 20.8618 33.6002 21.8209 33.7863C22.78 33.9725 24.1561 31.0392 24.8943 27.2347Z" fill="#424242"/>
<path d="M21.9797 26.671C21.4791 29.2472 21.3694 31.3932 21.7322 31.4635C22.095 31.5338 22.7982 29.5032 23.296 26.9269C23.7966 24.3507 23.9063 22.2047 23.5435 22.1344C23.1807 22.0641 22.4804 24.0947 21.9797 26.671Z" fill="url(#paint1_linear_85_106)"/>
<path d="M33.4941 17.4656C32.6981 18.0056 31.7166 17.3981 31.4156 16.5769C31.0669 14.5294 30.3778 12.1528 29.0278 10.1925C26.4994 6.31405 22.2497 4.37061 18 4.3678C13.7503 4.37061 9.50064 6.31405 6.9722 10.1925C5.6222 12.1528 4.93595 14.5322 4.58439 16.5769C4.28345 17.3981 3.30189 18.0056 2.50595 17.4656C2.44126 17.4206 2.34283 17.3081 2.24158 17.2462C2.32033 18.104 3.06845 18.7706 3.9572 18.7312L4.20189 18.72C5.94001 18.734 6.62908 17.6287 6.78939 16.2928C6.98908 14.6194 7.52064 12.659 8.92126 10.8C11.6185 7.21405 15.3422 6.45467 18 6.45186C20.6578 6.45467 24.3816 7.21405 27.0788 10.8C28.4569 12.6337 28.9941 14.5603 29.1994 16.2197C29.3738 17.6119 30.0488 18.734 31.9472 18.7284L32.04 18.734C32.9288 18.7762 33.6769 18.1069 33.7556 17.249C33.6572 17.3081 33.5588 17.4206 33.4941 17.4656Z" fill="#424242"/>
<path d="M4.12025 11.7028C3.85869 11.5172 3.65338 11.3119 4.02744 9.89998C4.48025 8.19842 6.58119 4.90498 10.814 2.72248C11.5987 2.31748 13.5056 1.71279 14.0878 2.76185C14.639 3.75748 11.9756 4.4831 11.0362 4.98654C8.57807 6.30842 6.80338 8.1731 5.84994 9.64685C5.54619 10.1165 4.74463 12.1415 4.12025 11.7028Z" fill="#757575"/>
<defs>
<linearGradient id="paint0_linear_85_106" x1="12.7884" y1="26.9283" x2="13.5974" y2="26.7713" gradientUnits="userSpaceOnUse">
<stop offset="0.202" stop-color="#212121"/>
<stop offset="1" stop-color="#212121" stop-opacity="0"/>
</linearGradient>
<linearGradient id="paint1_linear_85_106" x1="23.221" y1="26.9128" x2="22.412" y2="26.7558" gradientUnits="userSpaceOnUse">
<stop offset="0.202" stop-color="#212121"/>
<stop offset="1" stop-color="#212121" stop-opacity="0"/>
</linearGradient>
</defs>
</svg>
