<svg width="36" height="36" viewBox="0 0 36 36" fill="none" xmlns="http://www.w3.org/2000/svg">
<path d="M18 30.24C11.232 30.24 5.76001 24.768 5.76001 18C5.76001 11.232 11.232 5.76001 18 5.76001C24.768 5.76001 30.24 11.232 30.24 18C30.24 24.768 24.768 30.24 18 30.24ZM18 7.20001C12.024 7.20001 7.20001 12.024 7.20001 18C7.20001 23.976 12.024 28.8 18 28.8C23.976 28.8 28.8 23.976 28.8 18C28.8 12.024 23.976 7.20001 18 7.20001Z" fill="black"/>
<path d="M17.784 24.984L16.776 23.976L22.752 18L16.776 12.024L17.784 11.016L24.768 18L17.784 24.984Z" fill="black"/>
<path d="M11.52 17.28H23.76V18.72H11.52V17.28Z" fill="black"/>
</svg>
